<?xml version="1.0" standalone="no"?>
<!DOCTYPE svg PUBLIC "-//W3C//DTD SVG 20010904//EN"
 "http://www.w3.org/TR/2001/REC-SVG-20010904/DTD/svg10.dtd">
<svg version="1.0" xmlns="http://www.w3.org/2000/svg"
 width="398.000000pt" height="221.000000pt" viewBox="0 0 398.000000 221.000000"
 preserveAspectRatio="xMidYMid meet">

<g transform="translate(0.000000,221.000000) scale(0.100000,-0.100000)"
fill="#000000" stroke="none">
<path d="M763 2163 c9 -2 23 -2 30 0 6 3 -1 5 -18 5 -16 0 -22 -2 -12 -5z"/>
<path d="M918 2163 c6 -2 18 -2 25 0 6 3 1 5 -13 5 -14 0 -19 -2 -12 -5z"/>
<path d="M671 2149 c-18 -6 -31 -12 -29 -14 2 -2 26 2 53 10 28 7 41 13 30 13
-11 0 -35 -4 -54 -9z"/>
<path d="M1025 2140 c32 -11 61 -18 63 -16 5 5 -89 36 -107 35 -9 0 11 -9 44
-19z"/>
<path d="M558 2100 c-20 -11 -40 -25 -44 -31 -5 -9 73 31 95 48 14 10 -20 -1
-51 -17z"/>
<path d="M1121 2106 c13 -11 89 -55 89 -51 0 7 -73 55 -84 55 -5 0 -7 -2 -5
-4z"/>
<path d="M724 2075 c-145 -39 -278 -145 -339 -268 -78 -160 -85 -291 -24 -444
12 -29 27 -53 34 -53 10 0 6 18 -13 63 -24 56 -27 74 -27 187 0 116 2 130 28
190 96 217 316 345 539 310 161 -24 315 -134 384 -275 72 -147 72 -284 -1
-457 -5 -13 -3 -18 8 -18 20 0 56 99 67 182 40 320 -210 600 -531 597 -41 0
-97 -7 -125 -14z"/>
<path d="M452 2025 c-22 -20 -55 -54 -72 -78 l-32 -42 36 40 c19 22 54 57 78
77 24 21 40 38 37 38 -3 0 -24 -16 -47 -35z"/>
<path d="M1239 2027 c26 -28 31 -32 31 -19 0 4 -13 16 -28 26 l-27 19 24 -26z"/>
<path d="M1280 1996 c0 -2 16 -23 35 -47 47 -55 83 -118 112 -193 13 -33 21
-47 18 -31 -10 51 -62 153 -110 215 -42 54 -55 68 -55 56z"/>
<path d="M765 1937 c-248 -64 -369 -329 -254 -556 34 -65 35 -66 78 -69 l43
-3 -36 44 c-69 84 -89 179 -62 285 26 103 86 175 183 223 40 20 63 24 138 24
79 0 96 -4 144 -28 118 -62 181 -166 181 -297 0 -82 -23 -151 -70 -210 l-32
-40 39 0 c32 0 42 5 61 34 34 49 62 148 62 216 0 118 -62 243 -152 310 -88 64
-224 92 -323 67z"/>
<path d="M320 1864 c-12 -19 -21 -37 -18 -39 2 -2 14 14 26 36 28 49 22 52 -8
3z"/>
<path d="M271 1759 c-6 -18 -11 -37 -10 -43 0 -6 7 7 15 28 8 22 12 41 10 43
-2 2 -9 -10 -15 -28z"/>
<path d="M770 1760 c-88 -41 -133 -108 -134 -200 0 -67 27 -124 82 -171 l39
-34 -32 -105 c-18 -58 -54 -175 -80 -260 -38 -127 -81 -264 -121 -392 -4 -15
1 -18 34 -18 l38 0 24 75 24 75 80 25 c130 39 128 39 228 10 51 -15 98 -32
105 -39 6 -6 20 -40 31 -76 19 -63 20 -65 56 -68 22 -2 36 1 36 8 0 6 -16 64
-36 128 -19 64 -71 233 -114 376 l-79 259 48 46 c27 26 54 64 61 85 19 59 9
147 -23 195 -56 85 -178 122 -267 81z m156 -56 c68 -33 106 -115 84 -187 -15
-50 -64 -106 -80 -91 -13 13 -15 70 -5 124 5 27 2 41 -12 58 -46 56 -133 26
-133 -47 0 -20 5 -42 11 -48 11 -11 -7 -93 -22 -93 -17 0 -69 72 -75 105 -25
134 109 237 232 179z m-46 -454 c11 -7 5 -10 -23 -10 -23 0 -36 4 -32 10 8 13
35 13 55 0z m5 -29 c6 -11 -22 -19 -47 -13 -10 2 -15 8 -12 13 7 12 51 12 59
0z m-58 -21 c21 -8 38 -8 58 0 15 6 29 9 31 8 4 -5 94 -305 94 -316 0 -12
-123 -52 -158 -52 -16 0 -152 37 -159 44 -2 2 75 265 92 314 5 15 5 15 42 2z
m-92 -374 l30 -14 -25 -9 c-35 -14 -80 -24 -80 -19 0 3 4 16 10 30 11 29 22
31 65 12z m301 -11 c4 -14 5 -27 3 -29 -2 -2 -26 3 -54 12 l-50 15 35 13 c51
18 59 17 66 -11z"/>
<path d="M252 1680 c0 -14 2 -19 5 -12 2 6 2 18 0 25 -3 6 -5 1 -5 -13z"/>
<path d="M1451 1664 c0 -11 3 -14 6 -6 3 7 2 16 -1 19 -3 4 -6 -2 -5 -13z"/>
<path d="M242 1620 c0 -19 2 -27 5 -17 2 9 2 25 0 35 -3 9 -5 1 -5 -18z"/>
<path d="M1463 1565 c0 -22 2 -30 4 -17 2 12 2 30 0 40 -3 9 -5 -1 -4 -23z"/>
<path d="M243 1510 c0 -25 2 -35 4 -22 2 12 2 32 0 45 -2 12 -4 2 -4 -23z"/>
<path d="M1452 1450 c0 -14 2 -19 5 -12 2 6 2 18 0 25 -3 6 -5 1 -5 -13z"/>
<path d="M251 1439 c-1 -18 30 -112 35 -107 2 2 -5 31 -16 63 -10 33 -19 53
-19 44z"/>
<path d="M1427 1368 c-9 -29 -15 -54 -13 -56 2 -2 12 20 21 48 9 28 15 53 13
55 -2 3 -12 -19 -21 -47z"/>
<path d="M3040 1201 c-155 -50 -241 -219 -196 -384 50 -181 204 -260 399 -205
l37 11 0 84 0 84 -37 -28 c-48 -36 -135 -40 -180 -7 -75 56 -96 156 -50 239
43 78 149 105 217 57 51 -37 50 -39 50 48 0 78 -1 81 -27 92 -35 14 -180 20
-213 9z"/>
<path d="M50 1196 c0 -2 20 -51 44 -108 24 -56 69 -164 100 -238 31 -74 67
-159 79 -187 l22 -53 61 0 61 0 68 163 c137 326 175 417 175 422 0 3 -37 5
-81 3 l-82 -3 -49 -135 c-27 -74 -58 -166 -70 -204 l-21 -68 -49 143 c-28 79
-59 172 -71 207 l-21 62 -83 0 c-46 0 -83 -2 -83 -4z"/>
<path d="M1210 905 l0 -295 76 0 76 0 -4 200 c-2 110 -3 200 -2 200 1 0 12
-19 24 -42 12 -24 74 -114 137 -201 l115 -158 76 3 77 3 0 290 0 290 -72 3
-73 3 0 -203 0 -203 -30 52 c-16 28 -79 118 -138 200 l-109 148 -76 3 -77 3 0
-296z"/>
<path d="M1872 1133 l3 -68 50 -2 c28 -1 58 -2 68 -2 16 -1 17 -19 17 -226 l0
-225 75 0 75 0 2 227 3 227 55 2 c30 0 61 2 68 3 8 1 12 21 12 66 l0 65 -215
0 -216 0 3 -67z"/>
<path d="M2380 905 l0 -295 180 0 180 0 0 60 0 60 -99 0 -99 0 -3 28 c-2 15
-3 39 -1 55 l3 27 95 0 94 0 0 60 0 60 -95 0 c-77 0 -95 3 -96 15 0 8 -1 34
-1 58 l-1 42 101 3 102 3 0 59 0 60 -180 0 -180 0 0 -295z"/>
<path d="M3380 905 l0 -295 80 0 80 0 0 120 0 120 110 0 110 0 0 -120 0 -120
80 0 80 0 0 295 0 295 -80 0 -80 0 0 -115 0 -115 -110 0 -110 0 0 115 0 115
-80 0 -80 0 0 -295z"/>
<path d="M190 475 l0 -46 43 3 c42 3 42 3 42 43 0 40 0 40 -42 43 l-43 3 0
-46z m70 -5 c0 -27 -3 -30 -30 -30 -27 0 -30 3 -30 30 0 27 3 30 30 30 27 0
30 -3 30 -30z"/>
<path d="M212 473 c5 -26 38 -29 38 -4 0 15 -6 21 -21 21 -14 0 -19 -5 -17
-17z"/>
<path d="M303 507 c2 -20 19 -25 26 -6 2 6 -1 9 -7 5 -6 -3 -13 0 -16 6 -3 7
-5 5 -3 -5z"/>
<path d="M357 506 c-4 -10 -1 -13 9 -9 15 6 19 23 5 23 -5 0 -11 -7 -14 -14z"/>
<path d="M400 511 c0 -6 5 -13 10 -16 6 -3 10 1 10 9 0 9 -4 16 -10 16 -5 0
-10 -4 -10 -9z"/>
<path d="M460 510 c0 -5 5 -10 10 -10 6 0 10 5 10 10 0 6 -4 10 -10 10 -5 0
-10 -4 -10 -10z"/>
<path d="M530 506 c0 -9 -4 -15 -10 -11 -15 9 -60 -6 -60 -21 0 -7 9 -29 20
-48 10 -20 15 -38 11 -41 -14 -8 -32 21 -25 41 5 14 2 13 -11 -5 -14 -18 -19
-20 -26 -10 -7 12 -9 11 -10 -1 -1 -8 0 -19 1 -25 1 -5 -9 0 -22 13 -14 12
-30 22 -37 22 -8 0 -11 6 -7 15 3 9 0 15 -9 15 -9 0 -15 -9 -15 -23 0 -12 -7
-33 -16 -45 -19 -27 -14 -28 16 -2 26 23 38 24 60 9 12 -8 9 -10 -13 -6 -21 3
-27 1 -23 -9 3 -9 -4 -16 -19 -20 -29 -7 -32 -19 -9 -28 22 -9 24 -8 24 9 0 8
7 15 15 15 17 0 20 -16 5 -25 -6 -4 -7 -11 -4 -17 5 -8 1 -9 -9 -5 -10 4 -24
10 -32 13 -11 4 -15 0 -15 -17 0 -14 3 -19 8 -13 5 9 11 8 20 -2 11 -12 9 -14
-13 -14 -17 0 -25 -6 -26 -17 0 -10 -2 -39 -4 -64 -4 -40 -1 -48 15 -52 10 -3
21 0 23 7 3 8 9 7 20 -3 24 -19 21 -36 -5 -38 -18 -2 -20 0 -8 7 8 5 13 10 10
11 -3 0 -15 2 -28 5 -20 3 -22 1 -17 -18 5 -18 4 -20 -4 -8 -6 8 -11 11 -11 5
1 -5 7 -19 15 -29 11 -14 15 -16 15 -5 0 9 12 15 33 16 23 2 28 0 17 -7 -8 -5
-11 -12 -7 -17 5 -4 13 -1 18 7 8 11 12 12 16 3 2 -7 15 -13 28 -13 25 0 35
22 35 77 0 32 -20 57 -28 35 -2 -7 -8 -10 -13 -7 -5 4 -7 0 -4 -7 4 -9 -4 -12
-27 -11 -46 2 -48 4 -13 13 27 6 28 8 10 15 -11 5 -25 16 -32 24 -6 9 -15 13
-19 8 -4 -4 -2 -7 4 -7 7 0 12 -9 12 -20 0 -11 -4 -20 -9 -20 -14 0 -33 28
-27 39 4 5 2 12 -3 15 -5 3 -7 14 -4 24 3 14 11 18 29 14 28 -5 32 -19 7 -24
-15 -3 -14 -5 4 -10 19 -5 21 -2 17 28 -3 21 0 34 7 34 6 0 9 9 6 20 -3 13 0
20 9 20 8 0 14 -9 14 -20 0 -12 10 -25 25 -32 14 -6 25 -17 25 -25 0 -7 5 -13
10 -13 6 0 10 5 10 10 0 6 8 10 18 10 14 0 15 2 2 9 -8 6 -18 7 -22 5 -5 -3
-16 3 -25 12 -13 13 -14 19 -5 22 14 4 17 32 2 32 -5 0 -14 -8 -20 -17 -11
-17 -11 -17 -6 -1 3 11 -3 26 -16 38 -20 19 -16 26 14 21 4 0 20 4 35 10 23 8
26 8 16 -2 -15 -15 -17 -49 -3 -49 10 0 14 14 11 37 -1 8 5 10 14 7 8 -3 15
-11 15 -18 1 -6 8 -2 18 9 19 23 52 32 52 14 0 -8 4 -8 15 1 10 9 15 9 15 1 0
-11 -12 -15 -44 -11 -11 1 -15 -3 -12 -9 4 -7 1 -9 -8 -5 -10 4 -13 0 -10 -13
6 -26 -9 -45 -30 -37 -14 5 -15 9 -4 16 9 7 8 8 -7 6 -13 -2 -21 -12 -23 -28
-2 -20 -1 -22 7 -10 7 10 11 11 11 3 0 -7 11 -13 25 -13 14 0 25 -4 25 -10 0
-5 5 -10 11 -10 6 0 8 7 5 15 -3 8 -9 22 -12 30 -4 9 1 17 12 22 11 3 22 11
26 17 5 7 8 5 8 -4 0 -10 3 -11 8 -4 5 9 11 8 20 -2 10 -12 10 -14 -3 -14 -9
0 -15 -9 -15 -22 -1 -21 -2 -21 -11 -5 -5 9 -15 17 -20 17 -6 0 -3 -7 5 -16 9
-8 16 -19 16 -22 0 -18 -59 -54 -90 -56 -8 -1 -16 -10 -17 -21 -2 -11 0 -14 3
-7 3 6 12 12 19 12 7 0 16 -6 18 -12 3 -7 6 -2 6 12 1 18 4 21 12 13 13 -13
39 6 39 29 0 10 2 10 9 -1 8 -12 11 -9 17 13 5 21 11 26 25 23 14 -4 19 0 19
14 0 13 -5 17 -17 12 -14 -5 -15 -3 -6 7 6 7 9 19 6 26 -3 8 0 14 6 14 6 0 11
8 11 18 0 14 -2 15 -10 2 -8 -13 -10 -12 -10 3 0 16 -10 21 -37 18 -7 -1 -13
5 -13 14 0 8 -7 15 -15 15 -8 0 -15 4 -15 8 0 5 -6 9 -14 9 -8 0 -11 -8 -8
-20 3 -14 1 -18 -6 -13 -7 4 -12 16 -12 26 0 10 -6 20 -12 23 -8 2 -9 8 -4 13
5 5 11 4 13 -3 9 -24 31 -13 38 18 4 17 4 33 1 36 -3 4 -6 -1 -6 -11z m-80
-370 c0 -13 -6 -26 -13 -29 -10 -4 -12 3 -9 24 5 35 22 39 22 5z m-53 -2 c-3
-3 -12 -4 -19 -1 -8 3 -5 6 6 6 11 1 17 -2 13 -5z m8 -34 c-3 -5 -10 -10 -16
-10 -5 0 -9 5 -9 10 0 6 7 10 16 10 8 0 12 -4 9 -10z"/>
<path d="M554 506 c-3 -8 -4 -27 -2 -43 3 -25 7 -28 46 -31 l42 -3 0 45 0 46
-40 0 c-26 0 -43 -5 -46 -14z m76 -36 c0 -27 -3 -30 -30 -30 -27 0 -30 3 -30
30 0 27 3 30 30 30 27 0 30 -3 30 -30z"/>
<path d="M580 469 c0 -14 5 -19 17 -17 26 5 29 38 4 38 -15 0 -21 -6 -21 -21z"/>
<path d="M1263 495 c-61 -26 -72 -97 -24 -146 41 -40 91 -40 132 0 48 48 31
128 -32 150 -39 13 -37 13 -76 -4z m82 -40 c30 -29 32 -58 5 -85 -39 -39 -110
-11 -110 44 0 25 41 66 67 66 8 0 25 -11 38 -25z"/>
<path d="M3102 494 c-38 -26 -26 -65 26 -89 50 -23 54 -50 7 -49 -17 0 -38 4
-47 8 -13 6 -18 4 -18 -6 0 -17 41 -38 74 -38 13 0 34 8 46 18 34 28 21 65
-29 85 -22 9 -43 21 -46 28 -11 17 16 29 53 23 39 -8 44 12 6 26 -35 14 -46
13 -72 -6z"/>
<path d="M830 410 l0 -90 49 0 c69 0 111 35 111 91 0 61 -33 89 -105 89 l-55
0 0 -90z m117 43 c33 -44 2 -103 -54 -103 l-33 0 0 66 0 67 37 -6 c21 -4 44
-14 50 -24z"/>
<path d="M1910 410 l0 -90 53 0 c81 0 123 43 82 84 -13 13 -13 19 -3 36 23 36
0 55 -71 58 l-61 3 0 -91z m99 61 c25 -16 4 -41 -34 -41 -27 0 -35 4 -35 18 0
10 3 22 7 25 9 10 45 8 62 -2z m14 -85 c8 -21 -13 -36 -50 -36 -29 0 -33 3
-33 25 0 22 4 25 39 25 24 0 41 -5 44 -14z"/>
<path d="M2300 410 c0 -73 3 -90 15 -90 10 0 15 10 15 30 0 25 4 30 24 30 17
0 31 -10 43 -30 9 -16 23 -30 30 -30 17 0 16 11 -3 38 -15 21 -15 24 1 35 20
15 23 70 5 92 -9 10 -31 15 -71 15 l-59 0 0 -90z m94 64 c24 -9 20 -53 -6 -63
-39 -14 -58 -2 -58 35 0 29 3 34 24 34 13 0 31 -3 40 -6z"/>
<path d="M2711 423 c-18 -43 -36 -84 -38 -90 -3 -7 2 -13 12 -13 9 0 19 9 22
20 4 17 14 20 53 20 40 0 50 -4 55 -20 6 -20 35 -29 35 -11 0 5 -15 44 -33 88
-46 107 -62 108 -106 6z m73 -10 c7 -20 4 -23 -23 -23 -36 0 -36 1 -15 42 17
33 23 30 38 -19z"/>
<path d="M3450 410 c0 -73 3 -90 15 -90 12 0 15 17 15 90 0 73 -3 90 -15 90
-12 0 -15 -17 -15 -90z"/>
<path d="M3730 410 l0 -90 55 0 c42 0 55 3 55 15 0 11 -11 15 -40 15 l-40 0 0
75 c0 60 -3 75 -15 75 -12 0 -15 -17 -15 -90z"/>
<path d="M298 470 c-3 -12 -6 -26 -7 -37 0 -7 -6 -13 -12 -13 -11 0 -39 -24
-39 -34 0 -3 9 -6 21 -6 13 0 18 4 13 12 -4 7 -3 8 4 4 17 -10 15 -13 -18 -30
-24 -11 -30 -12 -30 -1 0 7 -6 15 -13 18 -10 4 -13 -4 -12 -29 2 -19 -2 -34
-8 -34 -6 0 -8 -3 -5 -6 7 -7 50 14 60 30 5 7 8 7 8 -2 0 -7 5 -10 10 -7 6 4
8 10 6 14 -3 4 6 18 19 29 14 12 25 28 25 34 0 9 -3 8 -10 -2 -8 -12 -10 -10
-10 8 0 13 4 20 10 17 6 -4 10 -3 9 2 -4 22 3 33 21 33 18 0 25 -11 21 -33 -1
-5 3 -6 9 -2 5 3 10 1 10 -4 0 -6 5 -11 10 -11 19 0 10 30 -13 45 -22 14 -75
18 -79 5z"/>
<path d="M413 473 c-18 -6 -16 -23 2 -23 8 0 15 -4 15 -10 0 -5 5 -10 10 -10
14 0 12 37 -2 42 -7 3 -19 3 -25 1z"/>
<path d="M215 410 c4 -6 11 -8 16 -5 14 9 11 15 -7 15 -8 0 -12 -5 -9 -10z"/>
<path d="M416 345 c4 -8 8 -15 10 -15 2 0 4 7 4 15 0 8 -4 15 -10 15 -5 0 -7
-7 -4 -15z"/>
<path d="M290 322 c0 -6 -8 -9 -17 -6 -15 5 -16 4 -3 -5 10 -7 11 -11 3 -11
-7 0 -13 -5 -13 -12 0 -7 10 -3 22 10 12 12 19 25 15 28 -4 4 -7 2 -7 -4z"/>
<path d="M230 313 c0 -5 5 -15 10 -23 8 -12 10 -11 10 8 0 12 -4 22 -10 22 -5
0 -10 -3 -10 -7z"/>
<path d="M380 269 c0 -6 8 -18 17 -27 16 -16 16 -16 10 1 -4 10 -7 23 -7 28 0
5 -4 9 -10 9 -5 0 -10 -5 -10 -11z"/>
<path d="M857 273 c-4 -3 -7 -37 -7 -75 l0 -68 55 0 c30 0 55 5 55 10 0 6 -18
10 -40 10 -33 0 -40 3 -40 20 0 16 7 20 35 20 19 0 35 5 35 10 0 6 -16 10 -35
10 -28 0 -35 4 -35 20 0 17 7 20 40 20 29 0 40 4 40 15 0 11 -12 15 -48 15
-27 0 -52 -3 -55 -7z"/>
<path d="M1167 274 c-4 -4 -7 -38 -7 -76 0 -53 3 -68 14 -68 11 0 16 14 18 48
l3 47 34 -47 c49 -69 61 -64 61 27 0 43 -4 75 -10 75 -5 0 -10 -24 -10 -52
l-1 -53 -47 53 c-26 30 -51 50 -55 46z"/>
<path d="M1540 273 c-51 -19 -68 -85 -30 -123 38 -38 110 -24 110 21 0 34 -17
39 -22 7 -5 -35 -57 -32 -77 4 -14 24 -14 28 4 48 12 14 30 21 50 20 47 -3 51
0 31 15 -20 15 -40 18 -66 8z"/>
<path d="M1830 205 l0 -75 50 0 c28 0 50 5 50 10 0 6 -18 10 -40 10 -33 0 -40
3 -40 20 0 16 7 20 35 20 19 0 35 5 35 10 0 6 -16 10 -35 10 -28 0 -35 4 -35
20 0 17 7 20 40 20 29 0 40 4 40 15 0 11 -12 15 -50 15 l-50 0 0 -75z"/>
<path d="M2137 273 c-4 -3 -7 -37 -7 -75 0 -53 3 -68 14 -68 11 0 16 14 18 48
l3 47 34 -47 c49 -69 61 -64 61 27 0 85 -17 103 -22 23 l-3 -53 -40 53 c-40
52 -46 58 -58 45z"/>
<path d="M2470 206 c0 -61 3 -76 15 -76 10 0 15 10 15 30 0 28 3 30 35 30 32
0 35 -2 35 -30 0 -20 5 -30 15 -30 13 0 15 13 13 73 -3 73 -20 99 -26 40 -3
-30 -6 -33 -37 -33 -31 0 -34 3 -37 32 -2 17 -9 33 -15 36 -10 3 -13 -16 -13
-72z"/>
<path d="M2852 267 c-9 -11 -62 -124 -62 -133 0 -11 29 -2 34 11 3 9 19 15 41
15 22 0 38 -6 41 -15 5 -13 34 -22 34 -11 0 11 -61 135 -69 140 -5 3 -13 0
-19 -7z m38 -79 c0 -5 -11 -8 -25 -8 -29 0 -29 0 -13 35 l12 26 13 -23 c7 -13
12 -26 13 -30z"/>
<path d="M3130 206 c0 -61 3 -76 15 -76 8 0 15 9 15 20 0 13 7 20 20 20 10 0
24 -9 30 -20 6 -11 17 -20 26 -20 13 0 13 3 -1 24 -14 21 -14 25 0 36 19 16
19 54 0 70 -8 7 -35 15 -60 18 l-45 5 0 -77z m94 27 c8 -21 -2 -32 -34 -35
-21 -3 -26 2 -28 25 -3 24 0 27 26 27 19 0 32 -6 36 -17z"/>
<path d="M3456 273 c-3 -3 -6 -37 -6 -75 0 -54 3 -68 15 -68 12 0 15 14 15 69
0 65 -8 90 -24 74z"/>
<path d="M3701 210 c-36 -81 -36 -80 -16 -80 8 0 15 7 15 15 0 22 76 21 88 -1
5 -9 14 -15 20 -13 16 6 -49 149 -67 149 -5 0 -22 -32 -40 -70z m63 -22 c-5
-8 -44 -11 -44 -4 0 3 5 17 11 33 l11 28 13 -25 c7 -14 11 -28 9 -32z"/>
<path d="M190 241 c0 -20 6 -32 19 -36 10 -3 18 -13 17 -22 -1 -12 8 -18 27
-19 15 -2 25 1 22 7 -4 5 -1 9 4 9 19 0 12 20 -6 21 -16 0 -15 2 2 10 l20 9
-20 -3 c-13 -2 -19 -9 -17 -20 2 -9 -2 -17 -8 -17 -5 0 -10 5 -10 10 0 22 -2
25 -21 32 -10 4 -19 13 -18 20 0 11 2 10 6 0 4 -10 8 -10 19 -1 11 9 14 8 14
-2 0 -8 6 -5 15 7 13 16 14 16 9 2 -4 -12 -1 -18 10 -18 9 0 16 8 16 20 0 13
-7 20 -20 20 -11 0 -20 -4 -20 -10 0 -6 -9 -6 -26 0 -35 14 -34 14 -34 -19z"/>
<path d="M606 244 c-9 -8 -16 -22 -16 -30 0 -8 -4 -12 -10 -9 -5 3 -10 -1 -10
-9 0 -9 -9 -16 -20 -16 -16 0 -20 -7 -20 -35 0 -19 5 -35 10 -35 6 0 10 -5 10
-12 0 -9 -3 -9 -11 -1 -9 9 -15 8 -25 -2 -8 -7 -19 -15 -26 -18 -7 -2 -10 -8
-6 -12 5 -5 17 0 28 10 19 17 21 17 40 0 11 -10 20 -13 20 -7 0 6 -6 13 -12
15 -7 3 -3 6 10 6 17 1 24 9 29 31 7 35 23 40 23 8 0 -19 2 -20 10 -8 18 28
12 48 -14 43 -21 -4 -24 -2 -19 16 6 23 23 29 23 9 0 -9 4 -8 10 2 5 8 10 22
10 30 0 13 -1 13 -11 0 -8 -12 -10 -9 -6 13 5 31 4 32 -17 11z m-26 -99 c0 -8
-9 -15 -20 -15 -11 0 -20 7 -20 15 0 8 9 15 20 15 11 0 20 -7 20 -15z"/>
<path d="M380 204 c0 -9 10 -12 31 -9 48 6 53 20 8 21 -25 0 -39 -4 -39 -12z"/>
<path d="M490 161 c-16 -7 -24 -71 -8 -71 16 0 38 28 38 49 0 24 -10 31 -30
22z"/>
<path d="M190 105 l0 -46 43 3 c42 3 42 3 42 43 0 40 0 40 -42 43 l-43 3 0
-46z m70 5 c0 -27 -3 -30 -30 -30 -25 0 -30 4 -30 23 0 30 7 37 37 37 19 0 23
-5 23 -30z"/>
<path d="M217 124 c-14 -15 -6 -34 14 -34 14 0 19 5 17 17 -3 18 -20 27 -31
17z"/>
<path d="M597 93 c-16 -15 -6 -33 18 -33 14 0 25 5 25 10 0 6 -5 10 -11 10 -5
0 -7 5 -4 10 7 11 -18 14 -28 3z"/>
</g>
</svg>
